<?xml version="1.0" encoding="utf-8"?>
<!-- Generator: Adobe Illustrator 16.0.0, SVG Export Plug-In . SVG Version: 6.00 Build 0)  -->
<svg version="1.2" baseProfile="tiny" id="Layer_1" xmlns="http://www.w3.org/2000/svg" xmlns:xlink="http://www.w3.org/1999/xlink"
	 x="0px" y="0px" width="1065.78px" height="287.157px" viewBox="0 0 1065.78 287.157" xml:space="preserve">
<g>
	<path fill="none" d="M512.851,97.251c-0.037-0.366-0.061-0.599-0.073-0.719c-0.02-0.103-0.049-0.258-0.09-0.472
		c-0.07-0.409-0.167-1.023-0.405-1.814c-0.438-1.584-1.285-3.931-3.219-6.776c-0.989-1.408-2.246-2.931-3.812-4.515
		c-1.584-1.574-3.502-3.183-5.73-4.794c-4.448-3.238-10.251-6.354-17.13-9.174c-6.881-2.835-14.872-5.331-23.75-7.513
		c-8.889-2.154-18.694-3.893-29.253-5.301c-10.565-1.389-21.904-2.293-33.886-2.868c-11.986-0.504-24.622-0.586-37.802-0.23
		c-13.177,0.437-26.907,1.183-41.066,2.572c-14.16,1.364-28.764,3.158-43.714,5.434c-29.899,4.53-61.177,11.126-92.838,20.238
		c-15.807,4.627-31.729,9.817-47.497,15.912c-15.785,6.028-31.432,12.949-46.59,20.867c-7.573,3.965-15.021,8.196-22.195,12.788
		c-7.178,4.581-14.094,9.534-20.436,14.952c-6.306,5.409-12.125,11.348-16.276,17.74c-2.049,3.186-3.671,6.47-4.527,9.642
		c-0.412,1.582-0.73,3.138-0.759,4.621c-0.05,0.376,0.001,0.738-0.008,1.104l0.001,0.548l0.048,0.396l0.029,0.39l0.006,0.193
		l0.063,0.401l0.263,1.635c-0.086-0.641,0.018-0.03,0.017-0.106l0.071,0.256l0.133,0.513c0.066,0.347,0.235,0.671,0.338,1.008
		c0.101,0.339,0.238,0.669,0.398,0.994c0.16,0.326,0.261,0.664,0.46,0.982c0.631,1.306,1.542,2.558,2.535,3.791
		c2.015,2.466,4.739,4.735,7.816,6.745c3.07,2.023,6.54,3.771,10.15,5.334c3.632,1.534,7.443,2.854,11.343,4.014
		c7.81,2.306,15.955,4.018,24.21,5.241c4.126,0.615,8.282,1.118,12.453,1.528c4.167,0.425,8.35,0.748,12.538,1.003
		c16.751,1.029,33.544,0.822,50.115,0.128c16.576-0.789,32.955-2.094,49.033-3.795c16.084-1.647,31.866-3.704,47.289-5.939
		c3.853-0.585,7.684-1.167,11.494-1.746c3.804-0.595,7.465-1.178,11.363-1.844c7.488-1.247,14.93-2.515,22.219-3.898
		c29.209-5.376,56.657-11.387,81.715-17.994c25.062-6.567,47.691-13.932,67.004-22.011c9.63-4.077,18.465-8.265,26.308-12.609
		c7.815-4.374,14.715-8.813,20.42-13.315c11.545-8.9,18.108-18.021,20.094-24.386c0.496-1.587,0.873-2.997,1.014-4.208
		c0.041-0.303,0.097-0.596,0.126-0.875c0.019-0.278,0.035-0.544,0.053-0.798s0.035-0.495,0.053-0.725
		c-0.002-0.192-0.004-0.374-0.006-0.546c0.003-0.173,0.005-0.335,0.008-0.487c0.002-0.156,0.019-0.269-0.013-0.502
		C512.913,97.858,512.879,97.521,512.851,97.251z"/>
	<path fill="#75C4D1" d="M525.013,98.508c-0.029-0.361-0.057-0.7-0.083-1.018c-0.028-0.313-0.053-0.638-0.089-0.804
		c-0.065-0.399-0.119-0.733-0.163-1.001c-0.088-0.537-0.132-0.809-0.132-0.809l-0.037-0.24c0,0-0.078-0.332-0.229-0.986
		c-0.151-0.655-0.371-1.632-0.808-2.874c-0.817-2.483-2.402-6.106-5.355-9.966c-1.487-1.909-3.292-3.865-5.41-5.79
		c-2.128-1.908-4.578-3.751-7.309-5.519c-5.46-3.552-12.085-6.638-19.618-9.366c-7.543-2.722-16.041-4.959-25.341-6.816
		c-9.298-1.873-19.411-3.319-30.231-4.365c-10.821-1.042-22.347-1.738-34.494-1.99c-12.146-0.288-24.909-0.176-38.205,0.328
		c-26.587,1.023-55.323,3.48-85.469,7.883c-7.542,1.099-15.16,2.338-22.859,3.653c-7.705,1.305-15.488,2.731-23.335,4.288
		c-15.682,3.162-31.663,6.658-47.77,10.857c-16.135,4.095-32.401,8.85-48.716,14.251c-16.288,5.469-32.652,11.545-48.734,18.896
		c-8.042,3.671-16.02,7.644-23.846,12.075c-7.831,4.42-15.525,9.277-22.891,14.89c-3.68,2.811-7.274,5.817-10.716,9.114
		c-3.432,3.308-6.744,6.869-9.702,10.945c-2.947,4.068-5.623,8.606-7.412,13.873c-0.87,2.632-1.588,5.401-1.864,8.328
		c-0.11,0.719-0.112,1.467-0.159,2.201l-0.049,1.107l0.03,1.257l0.055,1.265l0.035,0.633l0.043,0.421l0.172,1.646
		c0.145,0.911,0.098,0.57,0.158,0.917l0.105,0.552l0.217,1.106c0.129,0.742,0.371,1.45,0.561,2.176
		c0.19,0.729,0.425,1.437,0.692,2.129c0.265,0.693,0.494,1.414,0.814,2.073c1.148,2.742,2.674,5.21,4.313,7.509
		c3.327,4.581,7.293,8.218,11.371,11.349c4.097,3.127,8.38,5.654,12.707,7.901c4.321,2.258,8.704,4.195,13.113,5.915
		c8.82,3.441,17.743,6.022,26.656,8.194c4.456,1.103,8.916,2.075,13.375,2.945c4.459,0.885,8.917,1.658,13.37,2.354
		c17.812,2.777,35.538,4.391,53.039,5.062c17.503,0.759,34.78,0.539,51.711-0.351c16.928-0.944,33.516-2.547,49.649-4.779
		c2.016-0.281,4.026-0.562,6.031-0.844c2.001-0.31,3.995-0.619,5.984-0.927c3.98-0.634,8.053-1.3,11.828-1.958
		c7.861-1.379,15.547-2.913,23.143-4.491c30.325-6.505,58.506-14.991,83.879-24.618c12.675-4.854,24.664-9.946,35.906-15.167
		c11.23-5.261,21.701-10.668,31.363-16.125c9.662-5.461,18.493-11.005,26.405-16.601c7.925-5.573,14.943-11.164,20.934-16.768
		c5.96-5.63,10.954-11.192,14.678-16.729c1.866-2.76,3.429-5.48,4.684-8.118c1.245-2.648,2.182-5.198,2.838-7.572
		c0.606-2.399,1.017-4.575,1.138-6.512c0.037-0.482,0.083-0.941,0.103-1.387c0.003-0.447,0.006-0.876,0.01-1.285
		c-0.001-0.408-0.001-0.797-0.001-1.166C525.064,99.255,525.038,98.871,525.013,98.508z M512.967,98.762
		c-0.003,0.152-0.005,0.314-0.008,0.487c0.002,0.172,0.004,0.354,0.006,0.546c-0.018,0.23-0.035,0.471-0.053,0.725
		s-0.034,0.52-0.053,0.798c-0.029,0.279-0.085,0.572-0.126,0.875c-0.141,1.211-0.518,2.621-1.014,4.208
		c-1.985,6.365-8.549,15.486-20.094,24.386c-5.705,4.502-12.604,8.941-20.42,13.315c-7.843,4.344-16.678,8.532-26.308,12.609
		c-19.313,8.079-41.942,15.443-67.004,22.011c-25.058,6.607-52.506,12.618-81.715,17.994c-7.289,1.384-14.731,2.651-22.219,3.898
		c-3.898,0.666-7.559,1.249-11.363,1.844c-3.81,0.579-7.641,1.161-11.494,1.746c-15.423,2.235-31.205,4.292-47.289,5.939
		c-16.078,1.701-32.457,3.006-49.033,3.795c-16.571,0.694-33.364,0.901-50.115-0.128c-4.188-0.255-8.371-0.578-12.538-1.003
		c-4.171-0.41-8.327-0.913-12.453-1.528c-8.255-1.224-16.4-2.936-24.21-5.241c-3.9-1.159-7.711-2.479-11.343-4.014
		c-3.61-1.562-7.08-3.311-10.15-5.334c-3.077-2.01-5.801-4.279-7.816-6.745c-0.993-1.233-1.904-2.485-2.535-3.791
		c-0.199-0.318-0.3-0.656-0.46-0.982c-0.16-0.325-0.297-0.655-0.398-0.994c-0.103-0.337-0.272-0.661-0.338-1.008l-0.133-0.513
		l-0.071-0.256c0.001,0.076-0.103-0.534-0.017,0.106l-0.263-1.635l-0.063-0.401l-0.006-0.193l-0.029-0.39l-0.048-0.396l-0.001-0.548
		c0.009-0.366-0.042-0.729,0.008-1.104c0.029-1.483,0.347-3.039,0.759-4.621c0.856-3.172,2.478-6.456,4.527-9.642
		c4.151-6.393,9.97-12.331,16.276-17.74c6.342-5.418,13.258-10.371,20.436-14.952c7.174-4.592,14.622-8.823,22.195-12.788
		c15.158-7.918,30.805-14.839,46.59-20.867c15.768-6.095,31.69-11.285,47.497-15.912c31.661-9.112,62.939-15.708,92.838-20.238
		c14.95-2.276,29.554-4.07,43.714-5.434c14.159-1.389,27.889-2.135,41.066-2.572c13.18-0.356,25.816-0.274,37.802,0.23
		c11.982,0.575,23.321,1.479,33.886,2.868c10.559,1.408,20.364,3.147,29.253,5.301c8.878,2.182,16.869,4.678,23.75,7.513
		c6.879,2.82,12.682,5.936,17.13,9.174c2.229,1.611,4.146,3.22,5.73,4.794c1.566,1.584,2.823,3.107,3.812,4.515
		c1.934,2.845,2.78,5.192,3.219,6.776c0.238,0.791,0.335,1.405,0.405,1.814c0.041,0.214,0.07,0.37,0.09,0.472
		c0.013,0.12,0.036,0.353,0.073,0.719c0.028,0.27,0.062,0.607,0.104,1.009C512.985,98.493,512.969,98.606,512.967,98.762z"/>
</g>
<g>
	<path fill="#FFFFFF" d="M432.692,63.006h11.616V98.58h44.407V63.006h11.616v85.668h-11.616V109.47h-44.407v39.204h-11.616V63.006z"
		/>
	<path fill="#FFFFFF" d="M521.748,91.32h12.584l16.983,44.77h0.244l16.289-44.77h11.616l-27.225,69.696
		c-0.965,2.5-1.971,4.779-3.014,6.837c-1.044,2.057-2.29,3.812-3.734,5.264c-1.446,1.451-3.193,2.58-5.242,3.388
		c-2.05,0.806-4.559,1.21-7.531,1.21c-1.606,0-3.234-0.103-4.881-0.303c-1.646-0.202-3.233-0.626-4.758-1.271l1.323-9.922
		c2.163,0.887,4.328,1.331,6.492,1.331c1.684,0,3.104-0.223,4.268-0.665c1.16-0.444,2.163-1.09,3.006-1.937
		c0.842-0.847,1.543-1.836,2.104-2.965c0.56-1.13,1.121-2.42,1.683-3.871l3.525-9.075L521.748,91.32z"/>
	<path fill="#FFFFFF" d="M597.978,91.32h10.891v8.228h0.242c2.097-3.065,4.979-5.445,8.651-7.139
		c3.67-1.694,7.441-2.541,11.313-2.541c4.436,0,8.449,0.768,12.039,2.299c3.589,1.533,6.655,3.671,9.196,6.413
		c2.541,2.744,4.496,5.95,5.868,9.62c1.371,3.672,2.058,7.604,2.058,11.798c0,4.276-0.687,8.249-2.058,11.918
		c-1.372,3.671-3.327,6.857-5.868,9.559c-2.541,2.704-5.607,4.822-9.196,6.353c-3.59,1.531-7.604,2.299-12.039,2.299
		c-4.114,0-7.986-0.868-11.616-2.602s-6.413-4.093-8.349-7.079h-0.242v42.35h-10.891V91.32z M627.744,100.032
		c-2.904,0-5.526,0.505-7.865,1.513c-2.341,1.009-4.316,2.38-5.929,4.114c-1.615,1.736-2.864,3.833-3.751,6.292
		c-0.889,2.462-1.331,5.143-1.331,8.047c0,2.904,0.442,5.586,1.331,8.046c0.887,2.461,2.136,4.558,3.751,6.292
		c1.612,1.735,3.588,3.106,5.929,4.114c2.339,1.01,4.961,1.513,7.865,1.513s5.524-0.503,7.865-1.513
		c2.338-1.008,4.314-2.378,5.929-4.114c1.612-1.734,2.862-3.831,3.751-6.292c0.887-2.46,1.331-5.143,1.331-8.046
		c0-2.904-0.444-5.585-1.331-8.047c-0.889-2.459-2.139-4.556-3.751-6.292c-1.614-1.733-3.591-3.104-5.929-4.114
		C633.269,100.537,630.648,100.032,627.744,100.032z"/>
	<path fill="#FFFFFF" d="M689.211,123.99c0,2.501,0.545,4.78,1.634,6.836c1.089,2.057,2.52,3.812,4.295,5.264
		c1.773,1.452,3.831,2.583,6.171,3.388c2.339,0.807,4.759,1.21,7.261,1.21c3.388,0,6.331-0.787,8.833-2.36
		c2.499-1.573,4.798-3.649,6.896-6.231l8.229,6.292c-6.051,7.825-14.521,11.737-25.41,11.737c-4.519,0-8.612-0.768-12.282-2.299
		c-3.671-1.531-6.775-3.649-9.316-6.353c-2.541-2.702-4.498-5.887-5.868-9.559c-1.373-3.67-2.058-7.642-2.058-11.918
		c0-4.275,0.745-8.247,2.238-11.919c1.492-3.669,3.549-6.855,6.171-9.559c2.621-2.702,5.748-4.819,9.378-6.353
		c3.63-1.532,7.581-2.299,11.858-2.299c5.082,0,9.377,0.889,12.886,2.662c3.51,1.775,6.393,4.095,8.652,6.958
		c2.257,2.864,3.891,6.092,4.9,9.68c1.008,3.59,1.512,7.241,1.512,10.95v3.872H689.211z M723.575,115.278
		c-0.082-2.42-0.466-4.638-1.149-6.655c-0.687-2.016-1.715-3.77-3.086-5.264c-1.372-1.492-3.086-2.662-5.143-3.509
		c-2.057-0.847-4.458-1.271-7.199-1.271c-2.662,0-5.103,0.505-7.32,1.513c-2.22,1.01-4.096,2.32-5.627,3.933
		c-1.533,1.615-2.723,3.409-3.569,5.384c-0.847,1.978-1.271,3.933-1.271,5.869H723.575z"/>
	<path fill="#FFFFFF" d="M757.213,91.32h10.891v8.833h0.242c0.726-1.531,1.693-2.923,2.903-4.174c1.21-1.25,2.561-2.318,4.054-3.207
		c1.492-0.887,3.125-1.592,4.9-2.118c1.773-0.523,3.549-0.787,5.324-0.787c1.773,0,3.388,0.242,4.84,0.726l-0.483,11.737
		c-0.889-0.242-1.775-0.443-2.662-0.605c-0.889-0.161-1.775-0.242-2.662-0.242c-5.324,0-9.398,1.494-12.222,4.477
		c-2.824,2.985-4.234,7.623-4.234,13.915v28.798h-10.891V91.32z"/>
	<path fill="#FFFFFF" d="M809.363,70.75c0-2.178,0.786-4.054,2.359-5.626c1.573-1.573,3.448-2.36,5.626-2.36
		c2.179,0,4.054,0.787,5.627,2.36c1.573,1.573,2.359,3.448,2.359,5.626c0,2.178-0.786,4.053-2.359,5.626
		c-1.573,1.573-3.448,2.359-5.627,2.359c-2.178,0-4.053-0.787-5.626-2.359C810.149,74.803,809.363,72.928,809.363,70.75z
		 M811.904,91.32h10.89v57.354h-10.89V91.32z"/>
	<path fill="#FFFFFF" d="M846.389,119.997c0-4.194,0.786-8.107,2.359-11.737s3.73-6.815,6.474-9.559
		c2.741-2.741,5.969-4.9,9.68-6.473c3.709-1.573,7.702-2.36,11.979-2.36c4.275,0,8.269,0.787,11.979,2.36
		c3.709,1.573,6.937,3.732,9.68,6.473c2.742,2.744,4.9,5.929,6.474,9.559s2.359,7.543,2.359,11.737
		c0,4.195-0.786,8.127-2.359,11.797c-1.573,3.671-3.731,6.857-6.474,9.559c-2.743,2.704-5.971,4.84-9.68,6.413
		c-3.711,1.572-7.704,2.359-11.979,2.359c-4.276,0-8.27-0.787-11.979-2.359c-3.711-1.573-6.938-3.709-9.68-6.413
		c-2.743-2.702-4.9-5.888-6.474-9.559C847.175,128.125,846.389,124.192,846.389,119.997z M858.004,119.997
		c0,2.904,0.442,5.586,1.331,8.046c0.887,2.461,2.137,4.558,3.751,6.292c1.613,1.735,3.589,3.106,5.93,4.114
		c2.339,1.01,4.961,1.513,7.864,1.513c2.904,0,5.524-0.503,7.865-1.513c2.339-1.008,4.314-2.378,5.93-4.114
		c1.612-1.734,2.862-3.831,3.751-6.292c0.887-2.46,1.331-5.143,1.331-8.046c0-2.904-0.444-5.585-1.331-8.047
		c-0.889-2.459-2.139-4.556-3.751-6.292c-1.615-1.733-3.591-3.104-5.93-4.114c-2.341-1.008-4.961-1.513-7.865-1.513
		c-2.903,0-5.525,0.505-7.864,1.513c-2.341,1.009-4.316,2.38-5.93,4.114c-1.614,1.736-2.864,3.833-3.751,6.292
		C858.446,114.412,858.004,117.093,858.004,119.997z"/>
	<path fill="#FFFFFF" d="M930.119,91.32h10.891v8.833h0.242c1.37-3.065,3.751-5.545,7.139-7.441c3.388-1.895,7.3-2.844,11.737-2.844
		c2.741,0,5.384,0.424,7.925,1.271c2.541,0.847,4.759,2.159,6.655,3.933c1.895,1.775,3.407,4.054,4.537,6.836
		c1.129,2.783,1.694,6.071,1.694,9.862v36.905h-10.89v-33.88c0-2.662-0.363-4.94-1.089-6.836c-0.727-1.895-1.694-3.428-2.904-4.598
		c-1.21-1.168-2.602-2.016-4.175-2.541c-1.572-0.524-3.206-0.787-4.9-0.787c-2.259,0-4.355,0.363-6.292,1.089
		c-1.936,0.726-3.63,1.875-5.082,3.449c-1.452,1.573-2.582,3.569-3.388,5.989c-0.808,2.42-1.21,5.285-1.21,8.591v29.524h-10.891
		V91.32z"/>
</g>
</svg>
