<?xml version="1.0" encoding="utf-8"?>
<!-- Generator: Adobe Illustrator 16.0.0, SVG Export Plug-In . SVG Version: 6.00 Build 0)  -->
<svg version="1.2" baseProfile="tiny" id="Layer_1" xmlns="http://www.w3.org/2000/svg" xmlns:xlink="http://www.w3.org/1999/xlink"
	 x="0px" y="0px" width="528px" height="287.157px" viewBox="0 0 528 287.157" xml:space="preserve">
<g>
	<path fill="none" d="M512.851,97.251c-0.037-0.366-0.061-0.599-0.073-0.719c-0.02-0.103-0.049-0.258-0.09-0.472
		c-0.07-0.409-0.167-1.023-0.405-1.814c-0.438-1.584-1.285-3.931-3.219-6.776c-0.989-1.408-2.246-2.931-3.812-4.515
		c-1.584-1.574-3.502-3.183-5.73-4.794c-4.448-3.238-10.251-6.354-17.13-9.174c-6.881-2.835-14.872-5.331-23.75-7.513
		c-8.889-2.154-18.694-3.893-29.253-5.301c-10.565-1.389-21.904-2.293-33.886-2.868c-11.986-0.504-24.622-0.586-37.802-0.23
		c-13.177,0.437-26.907,1.183-41.066,2.572c-14.16,1.364-28.764,3.158-43.714,5.434c-29.899,4.53-61.177,11.126-92.838,20.238
		c-15.807,4.627-31.729,9.817-47.497,15.912c-15.785,6.028-31.432,12.949-46.59,20.867c-7.573,3.965-15.021,8.196-22.195,12.788
		c-7.178,4.581-14.094,9.534-20.436,14.952c-6.306,5.409-12.125,11.348-16.276,17.74c-2.049,3.186-3.671,6.47-4.527,9.642
		c-0.412,1.582-0.73,3.138-0.759,4.621c-0.05,0.376,0.001,0.738-0.008,1.104l0.001,0.548l0.048,0.396l0.029,0.39l0.006,0.193
		l0.063,0.401l0.263,1.635c-0.086-0.641,0.018-0.03,0.017-0.106l0.071,0.256l0.133,0.513c0.066,0.347,0.235,0.671,0.338,1.008
		c0.101,0.339,0.238,0.669,0.398,0.994c0.16,0.326,0.261,0.664,0.46,0.982c0.631,1.306,1.542,2.558,2.535,3.791
		c2.015,2.466,4.739,4.735,7.816,6.745c3.07,2.023,6.54,3.771,10.15,5.334c3.632,1.534,7.443,2.854,11.343,4.014
		c7.81,2.306,15.955,4.018,24.21,5.241c4.126,0.615,8.282,1.118,12.453,1.528c4.167,0.425,8.35,0.748,12.538,1.003
		c16.751,1.029,33.544,0.822,50.115,0.128c16.576-0.789,32.955-2.094,49.033-3.795c16.084-1.647,31.866-3.704,47.289-5.939
		c3.853-0.585,7.684-1.167,11.494-1.746c3.804-0.595,7.465-1.178,11.363-1.844c7.488-1.247,14.93-2.515,22.219-3.898
		c29.209-5.376,56.657-11.387,81.715-17.994c25.062-6.567,47.691-13.932,67.004-22.011c9.63-4.077,18.465-8.265,26.308-12.609
		c7.815-4.374,14.715-8.813,20.42-13.315c11.545-8.9,18.108-18.021,20.094-24.386c0.496-1.587,0.873-2.997,1.014-4.208
		c0.041-0.303,0.097-0.596,0.126-0.875c0.019-0.278,0.035-0.544,0.053-0.798s0.035-0.495,0.053-0.725
		c-0.002-0.192-0.004-0.374-0.006-0.546c0.003-0.173,0.005-0.335,0.008-0.487c0.002-0.156,0.019-0.269-0.013-0.502
		C512.913,97.858,512.879,97.521,512.851,97.251z"/>
	<path fill="#75C4D1" d="M525.013,98.508c-0.029-0.361-0.057-0.7-0.083-1.018c-0.028-0.313-0.053-0.638-0.089-0.804
		c-0.065-0.399-0.119-0.733-0.163-1.001c-0.088-0.537-0.132-0.809-0.132-0.809l-0.037-0.24c0,0-0.078-0.332-0.229-0.986
		c-0.151-0.655-0.371-1.632-0.808-2.874c-0.817-2.483-2.402-6.106-5.355-9.966c-1.487-1.909-3.292-3.865-5.41-5.79
		c-2.128-1.908-4.578-3.751-7.309-5.519c-5.46-3.552-12.085-6.638-19.618-9.366c-7.543-2.722-16.041-4.959-25.341-6.816
		c-9.298-1.873-19.411-3.319-30.231-4.365c-10.821-1.042-22.347-1.738-34.494-1.99c-12.146-0.288-24.909-0.176-38.205,0.328
		c-26.587,1.023-55.323,3.48-85.469,7.883c-7.542,1.099-15.16,2.338-22.859,3.653c-7.705,1.305-15.488,2.731-23.335,4.288
		c-15.682,3.162-31.663,6.658-47.77,10.857c-16.135,4.095-32.401,8.85-48.716,14.251c-16.288,5.469-32.652,11.545-48.734,18.896
		c-8.042,3.671-16.02,7.644-23.846,12.075c-7.831,4.42-15.525,9.277-22.891,14.89c-3.68,2.811-7.274,5.817-10.716,9.114
		c-3.432,3.308-6.744,6.869-9.702,10.945c-2.947,4.068-5.623,8.606-7.412,13.873c-0.87,2.632-1.588,5.401-1.864,8.328
		c-0.11,0.719-0.112,1.467-0.159,2.201l-0.049,1.107l0.03,1.257l0.055,1.265l0.035,0.633l0.043,0.421l0.172,1.646
		c0.145,0.911,0.098,0.57,0.158,0.917l0.105,0.552l0.217,1.106c0.129,0.742,0.371,1.45,0.561,2.176
		c0.19,0.729,0.425,1.437,0.692,2.129c0.265,0.693,0.494,1.414,0.814,2.073c1.148,2.742,2.674,5.21,4.313,7.509
		c3.327,4.581,7.293,8.218,11.371,11.349c4.097,3.127,8.38,5.654,12.707,7.901c4.321,2.258,8.704,4.195,13.113,5.915
		c8.82,3.441,17.743,6.022,26.656,8.194c4.456,1.103,8.916,2.075,13.375,2.945c4.459,0.885,8.917,1.658,13.37,2.354
		c17.812,2.777,35.538,4.391,53.039,5.062c17.503,0.759,34.78,0.539,51.711-0.351c16.928-0.944,33.516-2.547,49.649-4.779
		c2.016-0.281,4.026-0.562,6.031-0.844c2.001-0.31,3.995-0.619,5.984-0.927c3.98-0.634,8.053-1.3,11.828-1.958
		c7.861-1.379,15.547-2.913,23.143-4.491c30.325-6.505,58.506-14.991,83.879-24.618c12.675-4.854,24.664-9.946,35.906-15.167
		c11.23-5.261,21.701-10.668,31.363-16.125c9.662-5.461,18.493-11.005,26.405-16.601c7.925-5.573,14.943-11.164,20.934-16.768
		c5.96-5.63,10.954-11.192,14.678-16.729c1.866-2.76,3.429-5.48,4.684-8.118c1.245-2.648,2.182-5.198,2.838-7.572
		c0.606-2.399,1.017-4.575,1.138-6.512c0.037-0.482,0.083-0.941,0.103-1.387c0.003-0.447,0.006-0.876,0.01-1.285
		c-0.001-0.408-0.001-0.797-0.001-1.166C525.064,99.255,525.038,98.871,525.013,98.508z M512.967,98.762
		c-0.003,0.152-0.005,0.314-0.008,0.487c0.002,0.172,0.004,0.354,0.006,0.546c-0.018,0.23-0.035,0.471-0.053,0.725
		s-0.034,0.52-0.053,0.798c-0.029,0.279-0.085,0.572-0.126,0.875c-0.141,1.211-0.518,2.621-1.014,4.208
		c-1.985,6.365-8.549,15.486-20.094,24.386c-5.705,4.502-12.604,8.941-20.42,13.315c-7.843,4.344-16.678,8.532-26.308,12.609
		c-19.313,8.079-41.942,15.443-67.004,22.011c-25.058,6.607-52.506,12.618-81.715,17.994c-7.289,1.384-14.731,2.651-22.219,3.898
		c-3.898,0.666-7.559,1.249-11.363,1.844c-3.81,0.579-7.641,1.161-11.494,1.746c-15.423,2.235-31.205,4.292-47.289,5.939
		c-16.078,1.701-32.457,3.006-49.033,3.795c-16.571,0.694-33.364,0.901-50.115-0.128c-4.188-0.255-8.371-0.578-12.538-1.003
		c-4.171-0.41-8.327-0.913-12.453-1.528c-8.255-1.224-16.4-2.936-24.21-5.241c-3.9-1.159-7.711-2.479-11.343-4.014
		c-3.61-1.562-7.08-3.311-10.15-5.334c-3.077-2.01-5.801-4.279-7.816-6.745c-0.993-1.233-1.904-2.485-2.535-3.791
		c-0.199-0.318-0.3-0.656-0.46-0.982c-0.16-0.325-0.297-0.655-0.398-0.994c-0.103-0.337-0.272-0.661-0.338-1.008l-0.133-0.513
		l-0.071-0.256c0.001,0.076-0.103-0.534-0.017,0.106l-0.263-1.635l-0.063-0.401l-0.006-0.193l-0.029-0.39l-0.048-0.396l-0.001-0.548
		c0.009-0.366-0.042-0.729,0.008-1.104c0.029-1.483,0.347-3.039,0.759-4.621c0.856-3.172,2.478-6.456,4.527-9.642
		c4.151-6.393,9.97-12.331,16.276-17.74c6.342-5.418,13.258-10.371,20.436-14.952c7.174-4.592,14.622-8.823,22.195-12.788
		c15.158-7.918,30.805-14.839,46.59-20.867c15.768-6.095,31.69-11.285,47.497-15.912c31.661-9.112,62.939-15.708,92.838-20.238
		c14.95-2.276,29.554-4.07,43.714-5.434c14.159-1.389,27.889-2.135,41.066-2.572c13.18-0.356,25.816-0.274,37.802,0.23
		c11.982,0.575,23.321,1.479,33.886,2.868c10.559,1.408,20.364,3.147,29.253,5.301c8.878,2.182,16.869,4.678,23.75,7.513
		c6.879,2.82,12.682,5.936,17.13,9.174c2.229,1.611,4.146,3.22,5.73,4.794c1.566,1.584,2.823,3.107,3.812,4.515
		c1.934,2.845,2.78,5.192,3.219,6.776c0.238,0.791,0.335,1.405,0.405,1.814c0.041,0.214,0.07,0.37,0.09,0.472
		c0.013,0.12,0.036,0.353,0.073,0.719c0.028,0.27,0.062,0.607,0.104,1.009C512.985,98.493,512.969,98.606,512.967,98.762z"/>
</g>
</svg>
